Screen
 
http://bayimg.com/mAPdbAAdc

Seeding Time 24/7

Don't Forget To Say Thanks If You Like My Post



-=Media Info=-


Format : Windows Media
File size : 258 MiB
Duration : 27mn 9s
Overall bit rate mode : Constant
Overall bit rate : 1 328 Kbps
Maximum Overall bit rate : 1 379 Kbps
Encoded date : UTC 2008-11-30 03:01:06.328

Video
ID : 2
Format : WMV2
Codec ID : WMV2
Codec ID/Info : Windows Media Video 8
Description of the codec : Windows Media Video V8
Duration : 27mn 9s
Bit rate mode : Constant
Bit rate : 1 300 Kbps
Width : 640 pixels
Height : 480 pixels
Display aspect ratio : 4:3
Frame rate : 29.970 fps
Bit depth : 8 bits
Bits/(Pixel*Frame) : 0.141
Stream size : 253 MiB (98%)
Language : English (CA)

Audio
ID : 1
Format : WMA
Format version : Version 2
Codec ID : 161
Codec ID/Info : Windows Media Audio
Description of the codec : Windows Media Audio 9.1 - 64 kbps, 44 kHz, stereo (A/V) 1-pass CBR
Duration : 27mn 9s
Bit rate mode : Constant
Bit rate : 64.0 Kbps
Channel(s) : 2 channels
Sampling rate : 44.1 KHz
Bit depth : 16 bits
Stream size : 12.4 MiB (5%)
Language : English (CA)